<svg width="20" height="20" viewBox="0 0 20 20" fill="none" xmlns="http://www.w3.org/2000/svg">
<path d="M8.1633 3.08669L14.4133 9.33669C14.5007 9.42379 14.57 9.52728 14.6174 9.64124C14.6647 9.75519 14.689 9.87737 14.689 10.0008C14.689 10.1241 14.6647 10.2463 14.6174 10.3603C14.57 10.4742 14.5007 10.5777 14.4133 10.6648L8.1633 16.9148C7.98718 17.0909 7.74831 17.1899 7.49923 17.1899C7.25016 17.1899 7.01129 17.0909 6.83517 16.9148C6.65905 16.7387 6.56011 16.4998 6.56011 16.2508C6.56011 16.0017 6.65905 15.7628 6.83517 15.5867L12.4219 9.99997L6.83439 4.41326C6.65827 4.23713 6.55933 3.99826 6.55933 3.74919C6.55933 3.50012 6.65827 3.26125 6.83439 3.08513C7.01051 2.90901 7.24938 2.81006 7.49845 2.81006C7.74752 2.81006 7.98639 2.90901 8.16251 3.08513L8.1633 3.08669Z" fill="#0B0014"/>
</svg>
